<svg width="202" height="32" viewBox="0 0 202 32" fill="none" xmlns="http://www.w3.org/2000/svg">
<path d="M200.848 3.41292C200.441 3.03865 199.904 2.83452 199.349 2.84344C198.785 2.83089 198.238 3.03505 197.823 3.41292C197.612 3.61086 197.446 3.85144 197.338 4.11828C197.229 4.38512 197.18 4.67196 197.194 4.95927C197.179 5.24468 197.228 5.52969 197.337 5.79447C197.446 6.05925 197.612 6.29745 197.823 6.49248C198.238 6.87035 198.785 7.07451 199.349 7.06196C199.904 7.07088 200.441 6.86675 200.848 6.49248C201.06 6.29785 201.226 6.05983 201.336 5.79503C201.445 5.53022 201.495 5.24501 201.482 4.95927C201.495 4.67163 201.445 4.38459 201.335 4.11773C201.226 3.85087 201.06 3.61046 200.848 3.41292Z" fill="#07324A"/>
<path d="M201.073 9.42218H197.592V24.2917H201.073V9.42218Z" fill="#07324A"/>
<path d="M182.617 24.2954H186.103V12.2947C186.333 12.2597 186.688 12.2115 187.167 12.1546C187.626 12.0982 188.088 12.0689 188.55 12.067C189.064 12.0551 189.575 12.1367 190.058 12.3079C190.457 12.4595 190.799 12.7286 191.038 13.0787C191.307 13.4924 191.488 13.9559 191.57 14.4408C191.686 15.1121 191.739 15.7923 191.73 16.4731V24.2954H195.211V15.9344C195.218 15.0019 195.117 14.0717 194.91 13.1619C194.734 12.3737 194.379 11.6353 193.872 11.0027C193.349 10.3776 192.67 9.89761 191.903 9.60991C190.911 9.24741 189.856 9.07787 188.799 9.11061C187.611 9.10432 186.425 9.19073 185.251 9.36902C184.368 9.50018 183.493 9.68004 182.63 9.90773L182.617 24.2954Z" fill="#07324A"/>
<path d="M178.533 11.0209C177.374 9.75072 175.76 9.11419 173.69 9.11127C172.801 9.11258 171.92 9.28206 171.096 9.61057C170.251 9.94011 169.487 10.4449 168.856 11.0909C168.167 11.7982 167.631 12.6374 167.282 13.5568C166.867 14.6542 166.667 15.8194 166.692 16.9906C166.678 18.0291 166.827 19.0635 167.136 20.0564C167.42 20.9643 167.901 21.7999 168.546 22.5047C169.217 23.2212 170.045 23.7757 170.967 24.1253C172.069 24.5365 173.24 24.7343 174.417 24.7078C174.928 24.7066 175.439 24.6789 175.947 24.6246C176.444 24.5676 176.905 24.4976 177.34 24.4056C177.728 24.3359 178.112 24.2423 178.488 24.1253C178.762 24.0494 179.028 23.9482 179.282 23.8231L178.839 21.0112C178.305 21.2232 177.753 21.386 177.189 21.4974C176.426 21.6542 175.649 21.7291 174.87 21.7208C173.433 21.7208 172.329 21.3967 171.575 20.7397C171.184 20.3886 170.868 19.9634 170.646 19.4894C170.424 19.0154 170.301 18.5022 170.284 17.9804H180.218C180.24 17.7964 180.258 17.5775 180.266 17.3409C180.275 17.1044 180.266 16.903 180.266 16.7059C180.284 14.1875 179.703 12.2866 178.533 11.0209ZM170.32 15.4708C170.38 15.0335 170.486 14.6035 170.635 14.1875C170.781 13.7842 171.002 13.4114 171.287 13.0881C171.581 12.7337 171.952 12.449 172.373 12.2549C172.793 12.0609 173.253 11.9625 173.717 11.9669C174.175 11.9579 174.629 12.0492 175.047 12.2341C175.416 12.4074 175.739 12.6622 175.992 12.9786C176.265 13.3026 176.466 13.6803 176.581 14.0867C176.719 14.5233 176.788 14.9784 176.785 15.4357L170.32 15.4708Z" fill="#07324A"/>
<path d="M157.056 21.6018C156.428 21.4372 155.811 21.2354 155.207 20.9973L154.604 23.8661C155.16 24.074 155.727 24.251 156.303 24.3961C157.35 24.6376 158.424 24.7465 159.5 24.7202C161.475 24.7202 162.996 24.3552 164.063 23.6252C164.587 23.2674 165.009 22.7826 165.288 22.2174C165.568 21.6521 165.696 21.0254 165.659 20.3973C165.672 19.8188 165.583 19.2424 165.398 18.6936C165.224 18.216 164.944 17.7833 164.577 17.4278C164.158 17.0258 163.677 16.6905 163.154 16.4336C162.471 16.0951 161.769 15.7954 161.052 15.5357C160.619 15.3909 160.194 15.2228 159.779 15.032C159.483 14.8993 159.202 14.7364 158.941 14.5459C158.75 14.4111 158.597 14.2301 158.498 14.0203C158.406 13.815 158.36 13.5922 158.365 13.3677C158.356 13.1411 158.414 12.917 158.532 12.7226C158.651 12.5282 158.823 12.3719 159.03 12.2727C159.566 12.0152 160.159 11.8933 160.755 11.918C161.453 11.9077 162.149 11.9797 162.83 12.1326C163.333 12.2441 163.824 12.401 164.298 12.6012L164.932 9.81566C164.341 9.61107 163.734 9.45148 163.118 9.33826C162.283 9.17646 161.433 9.09578 160.582 9.09737C158.835 9.09737 157.454 9.49156 156.44 10.2799C155.942 10.6573 155.542 11.1476 155.276 11.7094C155.01 12.2712 154.884 12.8881 154.91 13.5078C154.892 14.1158 155.005 14.7205 155.243 15.2817C155.454 15.7536 155.764 16.176 156.152 16.5212C156.563 16.8751 157.023 17.17 157.518 17.3971C158.085 17.6693 158.667 17.912 159.26 18.1242C160.041 18.3816 160.786 18.7347 161.478 19.1753C161.684 19.3071 161.854 19.488 161.972 19.7015C162.09 19.915 162.152 20.1542 162.152 20.3973C162.17 20.6247 162.121 20.8525 162.009 21.052C161.897 21.2515 161.727 21.4139 161.522 21.5185C160.883 21.7766 160.193 21.8889 159.504 21.847C158.681 21.8691 157.858 21.7867 157.056 21.6018Z" fill="#07324A"/>
<path d="M151.128 10.9766C149.966 9.70212 148.356 9.06704 146.285 9.06704C145.391 9.06457 144.506 9.23416 143.678 9.56634C142.842 9.89922 142.086 10.4021 141.46 11.0423C140.779 11.7526 140.247 12.5892 139.895 13.5038C139.482 14.6032 139.284 15.7697 139.31 16.942C139.297 17.9803 139.447 19.0144 139.753 20.0078C140.035 20.9212 140.513 21.7638 141.154 22.478C141.822 23.1965 142.652 23.75 143.576 24.0942C144.679 24.5045 145.852 24.6994 147.03 24.668C147.541 24.668 148.052 24.6417 148.56 24.5891C149.057 24.5322 149.518 24.4621 149.948 24.3701C150.338 24.2996 150.723 24.2045 151.101 24.0854C151.374 24.0136 151.638 23.9137 151.89 23.7876L151.447 20.9758C150.912 21.186 150.358 21.3473 149.793 21.4575C149.032 21.6181 148.256 21.6945 147.478 21.6853C146.032 21.6853 144.937 21.3568 144.183 20.7042C143.792 20.3511 143.476 19.9236 143.256 19.4472C143.036 18.9707 142.915 18.4553 142.902 17.9318H152.813C152.813 17.7478 152.848 17.5288 152.857 17.2923C152.866 17.0558 152.857 16.8544 152.857 16.6573C152.866 14.1564 152.289 12.2424 151.128 10.9766ZM142.915 15.4046C142.972 14.9686 143.076 14.5399 143.225 14.1257C143.374 13.7214 143.596 13.3473 143.882 13.022C144.16 12.692 144.508 12.426 144.902 12.2424C145.34 12.0311 145.824 11.9274 146.312 11.9402C146.769 11.932 147.223 12.0216 147.642 12.203C148.011 12.3793 148.336 12.6352 148.591 12.9519C148.862 13.278 149.062 13.655 149.181 14.06C149.318 14.4953 149.385 14.9489 149.38 15.4046H142.915Z" fill="#07324A"/>
<path d="M138.751 9.62311C138.578 9.56617 138.347 9.50485 138.059 9.43478C137.771 9.3647 137.474 9.31214 137.172 9.26396C136.871 9.21578 136.556 9.18075 136.25 9.15009C135.944 9.11943 135.673 9.11067 135.443 9.11067C134.317 9.10127 133.193 9.20991 132.09 9.43478C131.236 9.61138 130.395 9.84403 129.572 10.1312V24.2911H133.035V12.378C133.326 12.2939 133.622 12.2281 133.922 12.1809C134.326 12.1081 134.735 12.07 135.146 12.067C135.741 12.0605 136.335 12.1118 136.92 12.2203C137.324 12.2984 137.724 12.3993 138.117 12.5225L138.751 9.62311Z" fill="#07324A"/>
<path d="M126.866 12.5364C126.69 11.8239 126.331 11.1681 125.825 10.6313C125.319 10.0946 124.682 9.69496 123.975 9.4705C123.038 9.16193 122.054 9.01381 121.066 9.03252C120.158 9.02623 119.251 9.10099 118.356 9.25589C117.705 9.35667 117.062 9.50303 116.432 9.69387L116.875 12.4794C117.412 12.3006 117.964 12.1687 118.525 12.0853C119.257 11.9639 119.999 11.9068 120.742 11.9144C121.246 11.8981 121.748 11.9754 122.223 12.1422C122.589 12.2755 122.918 12.4932 123.181 12.7773C123.42 13.0526 123.59 13.3797 123.678 13.7321C123.781 14.1031 123.831 14.4862 123.829 14.8708V15.4709C123.383 15.3578 122.929 15.2758 122.472 15.2256C122.071 15.1781 121.669 15.1533 121.265 15.1511C120.468 15.1486 119.673 15.2308 118.893 15.3964C118.18 15.536 117.499 15.8047 116.884 16.1891C116.305 16.5582 115.828 17.064 115.496 17.6608C115.137 18.3253 114.961 19.0715 114.986 19.8244C114.959 20.5969 115.11 21.3654 115.43 22.0712C115.71 22.6553 116.134 23.161 116.662 23.5429C117.237 23.9455 117.889 24.2273 118.578 24.3706C119.392 24.5497 120.224 24.635 121.057 24.6247C122.283 24.6356 123.507 24.5536 124.72 24.3794C125.806 24.2261 126.618 24.0903 127.163 23.9721V14.9365C127.174 14.1269 127.074 13.3195 126.866 12.5364ZM123.802 21.7033C122.992 21.8386 122.171 21.8959 121.35 21.8741C120.62 21.9128 119.893 21.7489 119.252 21.4011C118.738 21.0945 118.467 20.5252 118.467 19.7105C118.457 19.344 118.56 18.9832 118.764 18.6769C118.956 18.3996 119.219 18.1786 119.527 18.0374C119.862 17.88 120.219 17.7765 120.587 17.7308C120.974 17.6678 121.366 17.637 121.758 17.6389C122.162 17.6337 122.565 17.6645 122.964 17.7308C123.247 17.7662 123.527 17.8203 123.802 17.8929V21.7033Z" fill="#07324A"/>
<path d="M105.603 19.8155C106.127 21.3951 106.638 22.8872 107.138 24.2917H109.976C110.381 23.4157 110.793 22.42 111.213 21.3046C111.656 20.1878 112.06 18.9965 112.486 17.7263C112.911 16.4562 113.328 15.1203 113.754 13.7144C114.18 12.3085 114.588 10.8807 114.991 9.42218H111.395C111.223 10.2193 111.021 11.0778 110.787 11.9975C110.557 12.9129 110.308 13.8546 110.047 14.8094C109.785 15.7642 109.523 16.7014 109.253 17.6124C108.982 18.5234 108.721 19.3644 108.472 20.1133C108.177 19.2374 107.894 18.3366 107.625 17.411C107.356 16.4854 107.098 15.5568 106.849 14.6254C106.61 13.6969 106.385 12.7917 106.175 11.9099C105.965 11.0281 105.773 10.1989 105.599 9.42218H102.938C102.764 10.2018 102.566 11.031 102.344 11.9099C102.122 12.7888 101.887 13.694 101.639 14.6254C101.386 15.5539 101.124 16.4824 100.845 17.411C100.566 18.3395 100.282 19.2417 99.9936 20.1133C99.7231 19.3556 99.4526 18.5191 99.1821 17.6124C98.9116 16.7058 98.6544 15.7685 98.4016 14.8094C98.1489 13.8502 97.9094 12.9129 97.6788 11.9975C97.4482 11.0821 97.2354 10.2193 97.0713 9.42218H93.3862C93.7912 10.8821 94.2037 12.3129 94.6235 13.7144C95.0433 15.1159 95.466 16.4532 95.8917 17.7263C96.3352 18.9965 96.7387 20.1878 97.1644 21.3046C97.5901 22.4215 97.9892 23.4201 98.375 24.2917H101.235C101.732 22.8901 102.235 21.3981 102.743 19.8155C103.252 18.2329 103.726 16.6065 104.166 14.9364C104.598 16.6065 105.077 18.2329 105.603 19.8155Z" fill="#07324A"/>
<path d="M82.9873 18.3785C82.9762 19.2611 83.0625 20.1423 83.2445 21.0064C83.3892 21.7173 83.6921 22.3876 84.1314 22.9686C84.5752 23.5369 85.169 23.9734 85.8476 24.23C86.709 24.5416 87.6222 24.6902 88.5393 24.6679C89.3168 24.6802 90.0925 24.5888 90.8453 24.3964C91.3838 24.2549 91.9126 24.0793 92.4284 23.8708L91.8519 21.1422C91.4702 21.2856 91.0809 21.4085 90.6856 21.5101C90.1358 21.6527 89.5689 21.7205 89.0005 21.7116C88.0826 21.7116 87.4263 21.4575 87.0449 20.9451C86.6635 20.4327 86.4729 19.5435 86.4729 18.3479V12.295H91.8253V9.42179H86.4729V4.9281L82.9918 5.49748L82.9873 18.3785Z" fill="#07324A"/>
<path d="M73.1692 3.86471C72.1552 4.95382 71.6467 6.4561 71.6437 8.37154V24.2922H75.1292V12.2959H80.597V9.4227H75.1203V8.42848C75.1164 7.98657 75.164 7.54568 75.2623 7.11453C75.3457 6.73734 75.5122 6.38293 75.7501 6.07652C75.9941 5.77648 76.3115 5.54284 76.6724 5.39764C77.1211 5.22347 77.6007 5.14007 78.0826 5.15237C78.5522 5.14906 79.0207 5.19754 79.4795 5.29691C79.8719 5.37781 80.2541 5.50119 80.6191 5.66481L81.2799 2.82231C80.8266 2.66741 80.3647 2.53872 79.8963 2.43689C79.1971 2.2878 78.483 2.21727 77.7677 2.22666C75.7161 2.22958 74.1832 2.77559 73.1692 3.86471Z" fill="#07324A"/>
<path d="M68.6902 13.6439C68.3642 12.7382 67.8609 11.9048 67.209 11.1912C66.5709 10.5021 65.7865 9.96069 64.912 9.60567C63.9872 9.22859 62.9945 9.04085 61.9941 9.05382C60.9964 9.03995 60.0065 9.22775 59.085 9.60567C58.2157 9.96312 57.4362 10.5043 56.8013 11.1912C56.1407 11.9016 55.6311 12.7356 55.3024 13.6439C54.9355 14.6719 54.7539 15.7555 54.7658 16.8455C54.7555 17.9382 54.9371 19.0244 55.3024 20.0559C55.6272 20.9686 56.1305 21.8094 56.7835 22.5305C57.4189 23.214 58.1944 23.756 59.0584 24.1204C59.9872 24.5046 60.9874 24.6911 61.9941 24.6679C63.0061 24.6843 64.0105 24.4918 64.943 24.1029C65.8124 23.7388 66.5937 23.197 67.2356 22.513C67.8894 21.7955 68.3874 20.9533 68.699 20.0384C69.0598 19.0061 69.2369 17.9199 69.2223 16.828C69.2335 15.7441 69.0534 14.6667 68.6902 13.6439ZM64.6991 20.3932C64.3823 20.8002 63.975 21.1299 63.5087 21.3568C63.0423 21.5837 62.5294 21.7017 62.0096 21.7017C61.4898 21.7017 60.9769 21.5837 60.5105 21.3568C60.0442 21.1299 59.6369 20.8002 59.3201 20.3932C58.6771 19.5172 58.3533 18.339 58.3533 16.8455C58.3533 15.352 58.6771 14.1913 59.3201 13.3417C59.6384 12.9369 60.0463 12.6093 60.5124 12.384C60.9785 12.1586 61.4906 12.0415 62.0096 12.0415C62.5286 12.0415 63.0407 12.1586 63.5068 12.384C63.9729 12.6093 64.3807 12.9369 64.6991 13.3417C65.3421 14.1957 65.6658 15.3695 65.6658 16.8455C65.6658 18.3215 65.3288 19.5303 64.6858 20.3932H64.6991Z" fill="#07324A"/>
<path d="M44.5002 21.4355C43.8692 21.2741 43.2487 21.0752 42.6421 20.8398L42.039 23.7086C42.5943 23.9151 43.1614 24.0891 43.7374 24.2298C44.7843 24.4753 45.8591 24.5857 46.9347 24.5583C48.9095 24.5583 50.4291 24.1933 51.4934 23.4633C52.0184 23.1063 52.4415 22.6218 52.7218 22.0564C53.0022 21.4911 53.1305 20.8639 53.0942 20.2354C53.1068 19.6568 53.0183 19.0805 52.8326 18.5316C52.6591 18.0541 52.3787 17.6214 52.0122 17.2659C51.5925 16.8639 51.1123 16.5286 50.5887 16.2716C49.9059 15.9332 49.2041 15.6335 48.4868 15.3738C47.9901 15.203 47.5644 15.0365 47.2185 14.8789C46.9246 14.7453 46.6453 14.5824 46.3848 14.3927C46.1949 14.2568 46.0425 14.0761 45.9414 13.8671C45.8493 13.6618 45.8039 13.4391 45.8084 13.2145C45.7993 12.9879 45.8574 12.7635 45.9755 12.569C46.0937 12.3745 46.2668 12.2183 46.4735 12.1196C47.0099 11.8621 47.6027 11.7401 48.1985 11.7648C48.8965 11.7545 49.5932 11.8266 50.2739 11.9794C50.7766 12.091 51.268 12.2479 51.7417 12.4481L52.3714 9.65812C51.7778 9.4591 51.1701 9.30392 50.5533 9.19386C49.7193 9.03185 48.8711 8.95116 48.0212 8.95297C46.274 8.95297 44.8919 9.34715 43.8749 10.1355C43.3782 10.5132 42.9805 11.0031 42.715 11.564C42.4496 12.1249 42.3242 12.7404 42.3494 13.3591C42.3313 13.9684 42.4447 14.5746 42.682 15.1373C42.8866 15.6059 43.1888 16.0267 43.5689 16.3724C43.9803 16.7262 44.4401 17.0211 44.9348 17.2483C45.5017 17.5209 46.0835 17.7621 46.6775 17.971C47.4578 18.2313 48.2025 18.5859 48.8948 19.0266C49.1148 19.1571 49.2964 19.3422 49.4216 19.5634C49.5469 19.7847 49.6114 20.0345 49.6087 20.2879C49.6271 20.5158 49.5766 20.7439 49.4638 20.9435C49.3509 21.1431 49.1807 21.3051 48.9746 21.4092C48.3373 21.6678 47.6489 21.7801 46.9613 21.7377C46.1312 21.7423 45.3039 21.6407 44.5002 21.4355Z" fill="#07324A"/>
<path d="M35.2362 18.3997V22.5124C35.2362 25.8104 34.0389 27.7682 33.1875 28.6441C32.2651 29.6252 30.4913 31.1187 26.7442 31.1187H22.966V24.2774H25.4803C25.8071 24.2958 26.1343 24.2504 26.4433 24.1437C26.7522 24.0369 27.0368 23.871 27.2807 23.6555C27.5276 23.4169 27.7167 23.1265 27.8342 22.8057C27.9517 22.4849 27.9944 22.1422 27.9592 21.8028C27.9592 21.1721 27.9592 19.4859 27.9814 18.3997H35.2362Z" fill="#7BC794"/>
<path d="M12.2747 0.140808V7.00836H9.75592C9.42772 6.98903 9.09888 7.03403 8.78836 7.14077C8.47785 7.24751 8.19178 7.41388 7.94665 7.6303C7.69955 7.86851 7.51049 8.15906 7.39372 8.48C7.27695 8.80094 7.23554 9.14389 7.2726 9.48296C7.2726 10.1049 7.2726 11.7911 7.24156 12.8686H3.05176e-05V8.76467C3.05176e-05 5.47105 1.19734 3.50889 2.04877 2.63292C2.97114 1.64309 4.74494 0.140808 8.49653 0.140808H12.2747Z" fill="#7BC794"/>
<path d="M28.0171 0.140883C28.0171 0.140883 24.3719 -0.0167908 21.8088 1.14824C19.2456 2.31327 17.6536 3.64474 16.4075 6.3427C15.126 9.11513 13.8754 15.1286 12.2125 18.7332C10.5496 22.3378 7.29465 21.8297 7.29465 21.8297V31.1237C7.29465 31.1237 10.9442 31.2814 13.5029 30.1164C16.0616 28.9513 17.3743 27.5104 18.6248 24.9263C20.3498 21.3567 21.1569 16.1316 22.8154 12.5401C23.2341 11.5419 23.9654 10.7023 24.9022 10.1443C25.8391 9.58627 26.9322 9.3392 28.0215 9.43923L28.0171 0.140883Z" fill="#00AFAA"/>
</svg>
